<!--?xml version="1.0" standalone="no"?-->
<svg id="sw-js-blob-svg" viewBox="0 0 100 100" xmlns="http://www.w3.org/2000/svg">
  <defs>
    <linearGradient id="sw-gradient" x1="0" x2="1" y1="1" y2="0">
      <stop id="stop1" stop-color="rgba(248, 117, 55, 1)" offset="0%"></stop>
      <stop id="stop2" stop-color="rgba(251, 168, 31, 1)" offset="100%"></stop>
    </linearGradient>
  </defs>
  <path fill="url(#sw-gradient)"
    d="M16.9,-26.9C22.8,-22.5,29.2,-19.4,33.6,-14.1C38,-8.8,40.4,-1.3,39.9,6.1C39.4,13.5,36,20.9,30.8,26.4C25.5,31.9,18.6,35.6,11.6,36.3C4.6,37,-2.4,34.6,-9.3,32.3C-16.1,29.9,-22.7,27.7,-26.3,23.1C-29.9,18.4,-30.6,11.5,-32.2,4.2C-33.9,-3,-36.6,-10.5,-35.3,-17.3C-34,-24.1,-28.7,-30.3,-22.2,-34.4C-15.6,-38.5,-7.8,-40.6,-1.2,-38.8C5.5,-37,11,-31.3,16.9,-26.9Z"
    width="100%" height="100%" transform="translate(50 50)" stroke-width="0"
    style="transition: all 0.3s ease 0s;"></path>
</svg>