<!--?xml version="1.0" standalone="no"?-->
<svg id="sw-js-blob-svg" viewBox="0 0 100 100" xmlns="http://www.w3.org/2000/svg">
  <defs>
    <linearGradient id="sw-gradient" x1="0" x2="1" y1="1" y2="0">
      <stop id="stop1" stop-color="rgba(248, 117, 55, 1)" offset="0%"></stop>
      <stop id="stop2" stop-color="rgba(251, 168, 31, 1)" offset="100%"></stop>
    </linearGradient>
  </defs>
  <path fill="url(#sw-gradient)"
    d="M25,-30.3C30.6,-25.1,32,-15.5,31.8,-7C31.6,1.4,29.7,8.7,26,15C22.4,21.2,16.9,26.4,9.9,30.2C2.9,34.1,-5.6,36.6,-13.4,34.7C-21.2,32.8,-28.2,26.6,-33.3,18.7C-38.4,10.9,-41.7,1.5,-40.9,-8C-40.1,-17.4,-35.4,-26.9,-27.9,-31.8C-20.4,-36.7,-10.2,-36.9,-0.2,-36.6C9.7,-36.3,19.4,-35.5,25,-30.3Z"
    width="100%" height="100%" transform="translate(50 50)" stroke-width="0"
    style="transition: all 0.3s ease 0s;"></path>
</svg>