<!--?xml version="1.0" standalone="no"?-->
<svg id="sw-js-blob-svg" viewBox="0 0 100 100" xmlns="http://www.w3.org/2000/svg">
  <defs>
    <linearGradient id="sw-gradient" x1="0" x2="1" y1="1" y2="0">
      <stop id="stop1" stop-color="rgba(248, 117, 55, 1)" offset="0%"></stop>
      <stop id="stop2" stop-color="rgba(251, 168, 31, 1)" offset="100%"></stop>
    </linearGradient>
  </defs>
  <path fill="url(#sw-gradient)"
    d="M23.6,-37.2C30.3,-32.4,35.2,-25.4,38.9,-17.6C42.7,-9.9,45.3,-1.5,44,6.2C42.6,13.8,37.3,20.8,30.8,24.6C24.2,28.4,16.5,29.1,9.7,29.7C2.8,30.2,-3.1,30.5,-9.1,29.4C-15.1,28.4,-21.2,26,-24.9,21.6C-28.7,17.2,-30.2,10.9,-32.9,3.6C-35.7,-3.6,-39.7,-11.8,-37.2,-16.9C-34.7,-22,-25.7,-24,-18.4,-28.4C-11.1,-32.8,-5.6,-39.7,1.5,-41.9C8.5,-44.2,16.9,-41.9,23.6,-37.2Z"
    width="100%" height="100%" transform="translate(50 50)" stroke-width="0"
    style="transition: all 0.3s ease 0s;"></path>
</svg>