<!--?xml version="1.0" standalone="no"?-->
<svg id="sw-js-blob-svg" viewBox="0 0 100 100" xmlns="http://www.w3.org/2000/svg">
  <defs>
    <linearGradient id="sw-gradient" x1="0" x2="1" y1="1" y2="0">
      <stop id="stop1" stop-color="rgba(235.007, 99.037, 194.093, 1)" offset="0%"></stop>
      <stop id="stop2" stop-color="rgba(28.512, 95.784, 255, 1)" offset="100%"></stop>
    </linearGradient>
  </defs>
  <path fill="url(#sw-gradient)"
    d="M21.9,-33.7C28.9,-29.5,35.5,-24.4,39.1,-17.6C42.7,-10.7,43.2,-2.2,40.5,4.7C37.7,11.6,31.6,16.9,26.1,21.9C20.6,27,15.7,31.9,9.1,36.1C2.6,40.3,-5.7,43.8,-12.9,42.4C-20.1,40.9,-26.3,34.6,-29.8,27.5C-33.3,20.5,-34,12.7,-33.2,6C-32.3,-0.8,-29.8,-6.6,-28.4,-14.4C-27.1,-22.1,-26.9,-31.8,-22.3,-37.2C-17.8,-42.6,-8.9,-43.6,-0.7,-42.4C7.4,-41.3,14.8,-38,21.9,-33.7Z"
    width="100%" height="100%" transform="translate(50 50)" stroke-width="0"
    style="transition: all 0.3s ease 0s;" stroke="url(#sw-gradient)"></path>
</svg>