<!--?xml version="1.0" standalone="no"?-->
<svg id="sw-js-blob-svg" viewBox="0 0 100 100" xmlns="http://www.w3.org/2000/svg">
  <defs>
    <linearGradient id="sw-gradient" x1="0" x2="1" y1="1" y2="0">
      <stop id="stop1" stop-color="rgba(229.857, 99.037, 235.007, 1)" offset="0%"></stop>
      <stop id="stop2" stop-color="rgba(255, 169.552, 28.512, 1)" offset="100%"></stop>
    </linearGradient>
  </defs>
  <path fill="url(#sw-gradient)"
    d="M21.7,-34.7C26.7,-30.5,28.6,-22.2,29.5,-15C30.4,-7.8,30.5,-1.7,31.7,6C32.8,13.7,35,23,32.2,30.1C29.4,37.3,21.7,42.3,13.7,42.9C5.8,43.4,-2.3,39.4,-10.2,36.4C-18.2,33.4,-25.9,31.3,-30.9,26.3C-35.9,21.4,-38.1,13.6,-37.8,6.3C-37.6,-1,-34.8,-7.8,-32.2,-15.2C-29.6,-22.6,-27.2,-30.6,-21.8,-34.7C-16.5,-38.8,-8.3,-39.1,0,-39.2C8.3,-39.2,16.6,-39,21.7,-34.7Z"
    width="100%" height="100%" transform="translate(50 50)" stroke-width="0"
    style="transition: all 0.3s ease 0s;" stroke="url(#sw-gradient)"></path>
</svg>